<?xml version="1.0" encoding="UTF-8" standalone="no"?>
<!-- Created with Inkscape (http://www.inkscape.org/) -->

<svg
   xmlns:dc="http://purl.org/dc/elements/1.1/"
   xmlns:cc="http://creativecommons.org/ns#"
   xmlns:rdf="http://www.w3.org/1999/02/22-rdf-syntax-ns#"
   xmlns:svg="http://www.w3.org/2000/svg"
   xmlns="http://www.w3.org/2000/svg"
   xmlns:sodipodi="http://sodipodi.sourceforge.net/DTD/sodipodi-0.dtd"
   xmlns:inkscape="http://www.inkscape.org/namespaces/inkscape"
   width="401.44992"
   height="112.32793"
   viewBox="0 0 106.21695 29.720097"
   version="1.1"
   id="svg8"
   inkscape:version="0.92.0 r15299"
   sodipodi:docname="coach.svg">
  <defs
     id="defs2" />
  <sodipodi:namedview
     id="base"
     pagecolor="#ffffff"
     bordercolor="#666666"
     borderopacity="1.0"
     inkscape:pageopacity="0.0"
     inkscape:pageshadow="2"
     inkscape:zoom="2.0077611"
     inkscape:cx="199.72496"
     inkscape:cy="55.163963"
     inkscape:document-units="mm"
     inkscape:current-layer="layer1"
     showgrid="false"
     fit-margin-top="0"
     fit-margin-left="0"
     fit-margin-right="0"
     fit-margin-bottom="0"
     units="px"
     inkscape:window-width="1280"
     inkscape:window-height="744"
     inkscape:window-x="-4"
     inkscape:window-y="-4"
     inkscape:window-maximized="1" />
  <metadata
     id="metadata5">
    <rdf:RDF>
      <cc:Work
         rdf:about="">
        <dc:format>image/svg+xml</dc:format>
        <dc:type
           rdf:resource="http://purl.org/dc/dcmitype/StillImage" />
        <dc:title></dc:title>
      </cc:Work>
    </rdf:RDF>
  </metadata>
  <g
     inkscape:label="Layer 1"
     inkscape:groupmode="layer"
     id="layer1"
     transform="translate(269.80223,-229.71459)">
    <path
       inkscape:connector-curvature="0"
       id="path3013"
       d="m -263.26674,258.74951 c 0,-1.67357 -2.48892,-4.44484 -4.76626,-5.30698 l -1.50465,-0.56962 v -8.29821 -8.29822 l 1.50465,-0.56962 c 2.27734,-0.86214 4.76626,-3.63341 4.76626,-5.30698 0,-0.42255 4.76311,-0.46283 46.52495,-0.39349 l 46.52496,0.0772 0.39457,1.14464 c 0.65351,1.89586 1.86258,3.17534 3.98557,4.21767 l 1.98683,0.97548 v 8.15327 8.15326 l -1.98683,0.97548 c -2.12299,1.04233 -3.33206,2.32182 -3.98557,4.21767 l -0.39457,1.14465 -46.52496,0.0772 c -41.76184,0.0693 -46.52495,0.029 -46.52495,-0.3935 z m 92.00693,-2.04808 c 0.55849,-1.53641 2.12324,-3.22569 3.92973,-4.24247 l 1.64483,-0.92578 v -6.95848 -6.95849 l -1.64483,-0.92578 c -1.80649,-1.01678 -3.37124,-2.70606 -3.92973,-4.24247 l -0.36041,-0.99149 h -45.01205 -45.01206 l -0.57162,1.26422 c -0.56256,1.24416 -3.43685,3.93443 -4.92702,4.61158 l -0.71224,0.32364 v 6.93074 6.93075 l 0.99417,0.40544 c 1.41466,0.57692 4.01578,3.11406 4.66528,4.55054 l 0.55143,1.21954 h 45.01206 45.01205 z m -82.52409,-7.53209 c -3.13245,-0.57212 -5.34965,-2.07954 -5.68561,-3.86551 -0.61543,-3.27172 2.65381,-5.61034 7.84293,-5.61034 1.30174,0 2.9307,0.20285 3.64368,0.45373 0.9026,0.31759 1.45875,0.36336 1.85374,0.15253 1.0465,-0.55856 1.21631,-0.34506 1.21631,1.52927 0,2.15819 -0.50527,2.42543 -1.47776,0.78162 -1.52485,-2.57747 -5.9508,-2.97952 -7.8621,-0.71418 -0.73317,0.86898 -0.80553,1.162 -0.68779,2.78526 0.11285,1.55601 0.26535,1.93333 1.07178,2.65193 1.08181,0.964 2.86925,1.35711 4.74977,1.04461 0.94885,-0.15768 1.60664,-0.53578 2.43493,-1.39965 1.02298,-1.06692 1.77117,-1.49014 1.77117,-1.00188 0,0.59737 -1.17886,1.98782 -2.14394,2.52877 -1.29908,0.72816 -4.59446,1.05335 -6.72711,0.66384 z m 15.97251,-0.15848 c -3.80859,-0.86414 -5.85156,-2.70165 -5.43947,-4.8924 0.51056,-2.71417 3.2492,-4.17349 8.19125,-4.36481 3.81568,-0.14771 6.72836,0.53856 8.43147,1.98658 2.65045,2.25348 1.26539,5.75505 -2.7464,6.94323 -2.34962,0.69588 -6.16096,0.84378 -8.43685,0.3274 z m 5.90581,-0.95137 c 1.76433,-0.83498 2.46181,-3.27372 1.5552,-5.43771 -0.65324,-1.5592 -1.53687,-2.01306 -3.91928,-2.01306 -1.84208,0 -2.1752,0.0952 -3.04458,0.86988 -0.85328,0.76035 -0.9933,1.10577 -1.11208,2.7435 -0.15866,2.18748 0.33364,3.20595 1.87228,3.87343 1.30815,0.56749 3.40758,0.55121 4.64846,-0.036 z m 28.28897,0.92438 c -4.11494,-1.13951 -5.57937,-4.60451 -3.00636,-7.11334 1.74957,-1.70593 6.28359,-2.63068 9.12432,-1.861 1.63047,0.44178 3.0075,0.50315 3.74725,0.16701 0.47802,-0.21721 0.53532,-0.0438 0.53532,1.61984 0,1.57547 -0.0826,1.86128 -0.53532,1.85134 -0.29443,-0.006 -0.81135,-0.45264 -1.14871,-0.99149 -1.57606,-2.51739 -6.29494,-2.78862 -7.93319,-0.456 -0.61164,0.87089 -0.61899,3.35203 -0.0134,4.51998 0.6345,1.22369 1.93543,1.82046 3.9685,1.82046 1.95657,0 3.97701,-0.86088 4.28394,-1.82533 0.11142,-0.35009 0.46275,-0.61527 0.81515,-0.61527 0.61251,0 0.61301,0.0108 0.045,0.9807 -0.9555,1.63163 -2.27896,2.18803 -5.43382,2.28446 -1.78906,0.0547 -3.36064,-0.08 -4.44873,-0.38136 z m -22.43253,-0.0364 c -0.42393,-0.42279 -0.17559,-0.71184 0.61157,-0.71184 0.62978,0 1.34381,-0.57261 3.13545,-2.51448 1.27598,-1.38296 3.08907,-3.32401 4.02909,-4.31345 l 1.70913,-1.79898 3.64409,4.30506 c 3.04034,3.5918 3.78345,4.30644 4.4853,4.31345 0.54705,0.005 0.84122,0.17143 0.84122,0.47462 0,0.39965 -0.59705,0.4541 -4.18103,0.38134 -3.0104,-0.0611 -4.21659,-0.19164 -4.30806,-0.46622 -0.08,-0.24011 0.16902,-0.38134 0.67235,-0.38134 h 0.7994 l -0.67848,-0.91523 c -0.67167,-0.90604 -0.70787,-0.91522 -3.60635,-0.91522 -2.61604,0 -2.96939,0.0663 -3.31772,0.62256 -0.49133,0.78464 -0.23918,1.20789 0.71958,1.20789 0.4598,0 0.74669,0.17583 0.74669,0.45761 0,0.37016 -0.48717,0.45761 -2.54915,0.45761 -1.40203,0 -2.64092,-0.0915 -2.75308,-0.20338 z m 8.36122,-4.67782 c -0.53301,-0.67117 -1.00333,-1.2203 -1.04515,-1.2203 -0.0418,0 -0.51854,0.54913 -1.05936,1.2203 l -0.9833,1.2203 h 2.02845 2.02846 z m 26.30723,4.42359 c 0,-0.28474 0.2889,-0.45761 0.76475,-0.45761 h 0.76474 v -3.81344 -3.81344 h -0.76474 c -0.47585,0 -0.76475,-0.17287 -0.76475,-0.45761 0,-0.38134 0.6118,-0.45761 3.67078,-0.45761 3.05898,0 3.67077,0.0763 3.67077,0.45761 0,0.28474 -0.2889,0.45761 -0.76474,0.45761 -0.71376,0 -0.76475,0.10169 -0.76475,1.52538 v 1.52537 h 2.75308 2.75309 v -1.52537 c 0,-1.42369 -0.051,-1.52538 -0.76475,-1.52538 -0.47584,0 -0.76474,-0.17287 -0.76474,-0.45761 0,-0.38134 0.61179,-0.45761 3.67078,-0.45761 3.05898,0 3.67077,0.0763 3.67077,0.45761 0,0.30508 -0.3059,0.45761 -0.91769,0.45761 h -0.9177 v 3.81344 3.81344 h 0.9177 c 0.61179,0 0.91769,0.15254 0.91769,0.45761 0,0.38135 -0.61179,0.45761 -3.67077,0.45761 -3.05899,0 -3.67078,-0.0763 -3.67078,-0.45761 0,-0.28474 0.2889,-0.45761 0.76474,-0.45761 0.72304,0 0.76475,-0.0915 0.76475,-1.67792 v -1.67791 h -2.75309 -2.75308 v 1.67791 c 0,1.5864 0.0417,1.67792 0.76475,1.67792 0.47584,0 0.76474,0.17287 0.76474,0.45761 0,0.38135 -0.61179,0.45761 -3.67077,0.45761 -3.05898,0 -3.67078,-0.0763 -3.67078,-0.45761 z"
       style="fill:#28170b;stroke-width:0.26458332" />
  </g>
</svg>
