<svg width="232" height="13" viewBox="0 0 232 13" fill="none" xmlns="http://www.w3.org/2000/svg">
<g clip-path="url(#clip0)">
<path d="M9.2542 1.15708C13.6633 1.15708 16.9302 3.63209 16.875 6.21848C16.7828 10.624 12.8282 11.713 7.83568 11.713C6.6161 11.7585 5.39521 11.6714 4.19418 11.4531V1.15708H9.2542ZM8.08745 12.5978C14.7257 12.5978 20.062 9.74537 19.755 6.14423C19.4848 2.72253 15.2783 0.358887 9.9297 0.358887H0.202648C0.521675 0.45538 0.821102 0.608336 1.08692 0.810583C1.17103 0.868545 1.24116 0.94477 1.29218 1.03365C1.34319 1.12252 1.37377 1.22178 1.38168 1.32414V11.6388C1.36155 11.8257 1.26883 11.9969 1.12377 12.1152C0.785375 12.3484 0.402767 12.5085 0 12.5855L8.08745 12.5978Z" fill="#0F0F0F"/>
<path d="M33.1432 7.9758H26.5111L29.7596 3.11241L33.1432 7.9758ZM24.8347 12.5979C24.7978 12.5979 24.0732 12.437 23.9135 12.1957C23.7539 11.9544 23.9135 11.7811 24.0732 11.5769L25.9953 8.78638H33.6897L35.3969 11.3047C35.5934 11.6079 35.8513 11.8492 35.6302 12.1524C35.3389 12.3817 34.9981 12.5385 34.6354 12.6103H40.3279C39.8801 12.5067 39.4483 12.3423 39.0445 12.1215C38.7902 11.9587 38.5793 11.7357 38.4304 11.4718L30.5763 0.0124512L22.538 11.4965C22.3627 11.7778 22.1279 12.0166 21.8502 12.1957C21.5753 12.3496 21.2851 12.474 20.9844 12.567L24.8347 12.5979Z" fill="#0F0F0F"/>
<path d="M40.4873 1.42927C40.3302 1.16987 40.121 0.946463 39.8732 0.773391C39.5476 0.584437 39.2041 0.428965 38.8477 0.309326H44.0735C43.7983 0.397436 43.5435 0.540531 43.3243 0.730074C43.2403 0.807104 43.1867 0.912015 43.1731 1.02563C43.1596 1.13924 43.1871 1.25396 43.2506 1.34883L48.8203 9.39262L54.2058 1.09514C54.3041 0.93426 54.3594 0.785772 54.2058 0.624896C53.9952 0.455913 53.7423 0.34885 53.4751 0.31552H57.2148C56.9531 0.380472 56.7012 0.480344 56.4657 0.612509C56.1778 0.753712 55.9304 0.9667 55.7472 1.23126L48.194 12.5606L40.4873 1.42927Z" fill="#0F0F0F"/>
<path d="M65.2515 11.6821C65.2515 11.911 65.3927 12.0657 65.6138 12.239C65.8386 12.3902 66.0822 12.5109 66.3384 12.5978H61.5117C61.7932 12.4969 62.0566 12.3506 62.2916 12.1647C62.3708 12.111 62.4364 12.0393 62.4833 11.9556C62.5302 11.8718 62.5571 11.7782 62.5618 11.6821V1.24372C62.5605 1.15183 62.5388 1.06138 62.4985 0.978969C62.4581 0.896556 62.4 0.824242 62.3284 0.767273C62.0991 0.574414 61.834 0.429302 61.5486 0.340332H66.32C66.0635 0.42106 65.8196 0.537699 65.5954 0.686832C65.3743 0.866271 65.2331 1.01479 65.2331 1.24372L65.2515 11.6821Z" fill="#0F0F0F"/>
<path d="M81.5745 1.15708C85.9836 1.15708 89.2444 3.63209 89.1953 6.21848C89.1032 10.624 85.1485 11.713 80.156 11.713C78.9344 11.7583 77.7115 11.6712 76.5083 11.4531V1.15708H81.5745ZM80.3955 12.5978C87.0337 12.5978 92.3701 9.74537 92.063 6.14423C91.7928 2.72253 87.5864 0.358887 82.2377 0.358887H72.523C72.8415 0.456581 73.1407 0.609434 73.4072 0.810583C73.4913 0.868545 73.5615 0.94477 73.6125 1.03365C73.6635 1.12252 73.6941 1.22178 73.702 1.32414V11.6388C73.6819 11.8257 73.5891 11.9969 73.4441 12.1152C73.1057 12.3484 72.7231 12.5085 72.3203 12.5855L80.3955 12.5978Z" fill="#0F0F0F"/>
<path d="M114.385 11.5832C114.379 11.6986 114.398 11.8139 114.442 11.9209C114.485 12.0278 114.552 12.1238 114.636 12.2019C114.97 12.3847 115.331 12.5102 115.705 12.5732H110.178C110.53 12.4974 110.868 12.3658 111.179 12.1834C111.412 12.0039 111.578 11.843 111.578 11.6141V6.29282L106.53 1.47275C106.272 1.21268 105.976 0.993611 105.652 0.823044C105.214 0.607769 104.758 0.431792 104.289 0.297119H110.166C110.135 0.297119 109.318 0.482746 109.171 0.742622C109.024 1.0025 109.306 1.26236 109.564 1.50368L113.77 5.5132L117.093 1.67075C117.363 1.35519 117.707 0.922047 117.664 0.767359C117.572 0.51367 117.246 0.371363 116.847 0.309487H120.839C120.414 0.374937 120.006 0.526489 119.641 0.75499C119.363 0.929127 119.12 1.1536 118.923 1.41706L114.385 6.37945V11.5832Z" fill="#0F0F0F"/>
<path d="M139.644 1.26237C139.658 1.14787 139.645 1.03157 139.604 0.92369C139.563 0.815811 139.497 0.719652 139.411 0.643619C139.195 0.457121 138.931 0.336868 138.649 0.297119H142.371C142.11 0.342151 141.861 0.441171 141.64 0.587934C141.515 0.655647 141.414 0.759908 141.349 0.886962C141.284 1.01402 141.259 1.15788 141.277 1.2995V8.26047C141.277 8.63172 141.462 12.4865 134.044 12.5917C128.308 12.6598 126.423 10.6798 126.423 8.22334V1.21905C126.42 1.12864 126.399 1.03972 126.361 0.957773C126.323 0.87583 126.269 0.802607 126.202 0.742622C125.968 0.555653 125.705 0.411169 125.422 0.315681H130.212C129.954 0.393953 129.71 0.510756 129.487 0.662181C129.405 0.728757 129.339 0.813789 129.296 0.910491C129.252 1.00719 129.231 1.11287 129.235 1.21905V8.76783C129.235 10.4508 130.777 11.8616 134.369 11.8307C138.324 11.7874 139.681 10.3952 139.681 8.69358L139.644 1.26237Z" fill="#0F0F0F"/>
<path d="M153.624 6.03295C153.354 6.09482 151.07 6.06388 150.996 6.03295V0.940601H152.771C156.48 0.959164 161.067 4.22 153.624 6.03295ZM150.996 6.77546H152.685C153.191 6.77183 153.695 6.85984 154.171 7.03532C154.442 7.13374 154.689 7.2899 154.895 7.49319L159.562 11.8863C159.736 12.0681 159.945 12.2114 160.176 12.3071C160.488 12.4506 160.819 12.5486 161.159 12.5979H164.678C164.176 12.4984 163.684 12.3598 163.204 12.1834C162.553 11.9544 160.698 10.4261 159.648 9.23189C158.56 8.04667 157.268 7.06979 155.835 6.34852C156.056 6.34852 160.066 5.67407 159.955 3.3228C159.863 1.11386 156.271 0.315674 153.814 0.315674H147.354C147.639 0.421616 147.903 0.576541 148.134 0.773545C148.204 0.833847 148.26 0.907729 148.3 0.990698C148.34 1.07367 148.363 1.16399 148.368 1.25617V11.6574C148.363 11.7535 148.336 11.8471 148.289 11.9309C148.242 12.0147 148.177 12.0863 148.097 12.14C147.868 12.3302 147.611 12.4845 147.336 12.5979H152.144C151.883 12.4978 151.634 12.3691 151.401 12.2143C151.18 12.041 150.984 11.8863 150.984 11.6512L150.996 6.77546Z" fill="#0F0F0F"/>
<path d="M184.752 2.4378L177.677 12.9566L170.345 2.4378V11.948C170.345 12.1089 170.474 12.2079 170.634 12.3502C170.812 12.5045 171.021 12.6166 171.248 12.6782H168.055C168.291 12.6219 168.512 12.5165 168.706 12.3688C168.847 12.2388 168.994 12.1398 168.994 11.979V1.13841C168.991 1.0549 168.971 0.972981 168.934 0.898239C168.897 0.823497 168.844 0.757676 168.779 0.705275C168.622 0.557638 168.426 0.458821 168.214 0.420654H172.046L178.377 9.99276L184.598 0.426848H188.356C188.101 0.504725 187.861 0.623847 187.644 0.779542C187.569 0.850598 187.512 0.937378 187.474 1.03367C187.437 1.12996 187.422 1.23336 187.429 1.33642V11.8181C187.429 12.0347 187.558 12.1893 187.791 12.3502C188.036 12.483 188.299 12.5789 188.571 12.6348H183.8C184.087 12.5944 184.36 12.4863 184.598 12.3193C184.666 12.2576 184.718 12.1805 184.75 12.0943C184.782 12.0082 184.793 11.9156 184.782 11.8243L184.752 2.4378Z" fill="#0F0F0F"/>
<path d="M203.807 7.97572H197.187L200.435 3.11233L203.807 7.97572ZM195.498 12.5978C195.461 12.5978 194.737 12.4369 194.577 12.1956C194.417 11.9543 194.577 11.7811 194.737 11.5769L196.659 8.7863H204.353L206.06 11.3046C206.257 11.6078 206.515 11.8491 206.294 12.1523C206.002 12.3816 205.662 12.5384 205.299 12.6102H210.991C210.544 12.5066 210.112 12.3422 209.708 12.1214C209.454 11.9587 209.243 11.7356 209.094 11.4717L201.215 0L193.177 11.4841C193.002 11.7654 192.767 12.0041 192.489 12.1832C192.213 12.347 191.921 12.4818 191.617 12.5854L195.498 12.5978Z" fill="#0F0F0F"/>
<path d="M216.108 2.23361V11.948C216.108 12.1089 216.237 12.2327 216.397 12.3626C216.621 12.5333 216.886 12.6421 217.165 12.6782H213.806C214.068 12.6471 214.318 12.5468 214.53 12.3874C214.596 12.3469 214.649 12.2877 214.681 12.2173C214.714 12.1469 214.726 12.0683 214.714 11.9914V1.38592C214.714 1.05798 214.475 0.96517 214.186 0.767169C213.834 0.581556 213.455 0.452147 213.062 0.383545H217.195L229.391 9.36783V1.13223C229.391 0.965167 229.262 0.859983 229.115 0.730045C228.931 0.563058 228.706 0.449669 228.464 0.402107H232.001C231.777 0.458557 231.568 0.561861 231.387 0.70529C231.202 0.835228 231.006 0.946612 231.006 1.11986V12.9999L216.108 2.23361Z" fill="#0F0F0F"/>
</g>
<defs>
<clipPath id="clip0">
<rect width="232" height="13" fill="white"/>
</clipPath>
</defs>
</svg>
