<svg xmlns="http://www.w3.org/2000/svg" viewBox="0 0 27.324389 4.1232285">
<path d="m 27.317317,1.5675953 c 1.18e-4,0.4559194 -0.243985,0.8769718 -0.639698,1.1034096 l 0.646769,1.4523547 H 26.270685 L 25.69928,2.8393147 h -1.842519 v 1.2840449 h -0.96379 V -1.3125682e-4 h 3.152425 C 26.747714,-1.304924e-4 27.317024,0.56927013 27.316912,1.2715881 Z m -1.271921,0.307322 c 0.169716,-2.229e-4 0.307211,-0.1378082 0.307322,-0.307524 V 1.2717903 C 26.352496,1.1021204 26.215066,0.96460003 26.045396,0.96426613 H 23.856761 V 1.8749173 Z m -8.657351,-0.602925 c 0,-0.70246341 0.56946,-1.27192233259 1.271923,-1.271921504162 h 2.212071 C 21.57447,6.9903208e-5 22.143872,0.56956154 22.14376,1.2719923 V 4.1231572 H 21.179563 V 2.8393147 h -2.827524 v 1.2840449 h -0.963994 z m 3.791317,0 C 21.179251,1.1021972 21.041632,0.9645791 20.871837,0.96446811 h -2.211869 c -0.169874,8e-8 -0.307615,0.13765069 -0.307726,0.30752419 v 0.602925 h 2.827321 z M 17.086987,-1.3125682e-4 V 0.96386191 H 15.490571 L 15.489805,4.1231572 H 14.507583 V 0.96406398 H 12.911366 L 12.910768,-1.3125682e-4 Z M 9.0212473,1.2719923 c 1.114e-4,0.1697945 0.1377291,0.3074124 0.3075236,0.3075242 h 2.0017361 c 1.695071,8.232e-4 1.695071,2.5446663 0,2.5438431 L 8.2079855,4.1231572 V 3.1591642 H 11.330306 C 11.500054,3.1590525 11.637697,3.0215901 11.638031,2.8518421 11.637808,2.6820152 11.500133,2.5444298 11.330306,2.5443179 H 9.3289733 c -1.6964944,6.001e-4 -1.6964944,-2.54324292 0,-2.54384299936 H 12.323798 V 0.96467016 H 9.3287709 C 9.1589629,0.96455882 9.0212472,1.1021842 9.0212473,1.2719923 Z M 5.6477763,1.5793144 H 7.1805474 V 2.5435097 H 5.6477763 Z M 1.2717194,4.1233596 C 0.56925652,4.123248 -1.1166443e-4,3.5536988 1.6426734e-8,2.8512359 V 1.2717903 C -1.1166718e-4,0.56936015 0.5692892,-1.3125682e-4 1.2717194,-1.3125682e-4 H 4.7029779 V 0.96406398 H 1.2717194 C 1.1018591,0.9642866 0.96421573,1.10193 0.96399319,1.2717903 l 2.0218e-4,1.5794456 c -4e-8,0.1698082 0.13771583,0.3074337 0.30752403,0.3073221 H 3.522182 C 3.6919308,3.1584469 3.8295741,3.0209844 3.8299082,2.8512359 V 2.5437117 H 2.3718962 V 1.5795165 h 2.4220051 v 1.2717194 c 1e-7,0.7024167 -0.5693027,1.2719005 -1.2717193,1.2721237 z" fill="#000000"/>
</svg>