<svg width="665" height="620" viewBox="0 0 665 620" fill="none" xmlns="http://www.w3.org/2000/svg">
<path d="M150.501 100.657C170.051 100.657 185.829 103.059 197.833 107.86C209.837 112.662 219.269 118.665 226.129 125.867C232.988 132.727 237.79 139.929 240.534 147.475C243.621 154.677 245.679 160.851 246.708 165.996C248.08 171.827 246.365 176.972 241.564 181.431C236.762 185.546 231.103 186.919 224.586 185.547C224.243 185.547 224.071 183.831 224.071 180.401C224.071 176.629 223.386 171.998 222.014 166.511C220.985 161.023 219.098 155.021 216.355 148.504C213.611 141.987 209.495 135.985 204.007 130.497C198.862 125.009 191.831 120.551 182.913 117.121C173.995 113.348 162.848 111.462 149.472 111.462C137.81 111.462 127.863 113.177 119.632 116.606C111.4 120.036 104.884 124.666 100.082 130.497C95.2803 135.985 92.0216 142.502 90.3067 150.048C88.9348 157.593 89.2782 165.653 91.336 174.228C93.7369 185.546 99.5675 195.15 108.828 203.039C118.089 210.585 128.893 217.444 141.24 223.618C153.588 229.449 166.621 235.108 180.341 240.596C194.06 246.083 206.579 252.429 217.897 259.632C229.559 266.492 239.162 275.066 246.708 285.355C250.79 290.736 253.766 296.82 255.64 303.606V214.202H376.475V226.035H258.212C268.501 226.721 277.248 230.837 284.45 238.383C291.653 245.585 295.254 254.332 295.254 264.621V355.169H374.564V367.002H258.212C268.501 367.345 277.248 371.289 284.45 378.835C291.653 386.038 295.254 394.785 295.254 405.074V508.484H408.263V281.843H432.443C457.824 311.683 482.348 340.665 506.014 368.79C516.303 380.795 526.765 393.142 537.397 405.832C548.373 418.522 559.005 431.041 569.295 443.389C579.584 455.736 589.36 467.569 598.62 478.888C608.224 489.863 616.627 499.81 623.83 508.728C632.748 519.36 639.607 531.193 644.409 544.227C649.554 557.26 652.469 570.808 653.155 584.87V281.843H664.988V587.957H640.808C615.084 557.431 590.217 527.935 566.208 499.467C555.919 487.119 545.286 474.601 534.311 461.91C523.678 448.877 513.046 436.186 502.413 423.839C492.124 411.148 482.177 399.315 472.573 388.34C463.313 377.021 455.081 367.075 447.878 358.5C430.386 337.235 421.125 313.055 420.096 285.959V578.191C420.107 578.186 420.119 578.181 420.13 578.176V594.326C416.17 596.045 412.18 597.676 408.163 599.218V583.366C408.196 583.353 408.229 583.339 408.263 583.325V520.317H255.64V341.517C254.467 346.26 252.863 351.034 250.824 355.839C246.365 366.814 239.677 376.761 230.76 385.679C221.842 394.596 210.866 401.97 197.833 407.801C184.8 413.289 169.708 416.033 152.559 416.033C134.38 416.033 118.603 413.975 105.227 409.859C92.1933 405.401 81.0467 400.084 71.7862 393.91C62.8686 387.736 55.6655 381.22 50.1778 374.36C44.69 367.158 40.7457 360.812 38.3448 355.324C37.3159 352.923 36.9725 350.351 37.3155 347.607C38.0014 344.864 39.0304 342.291 40.4024 339.89C42.1173 337.146 44.3471 335.088 47.0909 333.716C49.8347 332.001 53.0935 331.315 56.8662 331.658C59.6101 345.378 64.9258 357.726 72.8145 368.701C79.3312 377.962 88.7639 386.536 101.111 394.425C113.459 401.97 129.922 405.743 150.501 405.743C162.848 405.743 173.824 403.513 183.428 399.055C193.374 394.253 201.435 388.08 207.608 380.534C213.782 372.988 217.727 364.585 219.441 355.324C221.499 345.721 220.984 336.117 217.897 326.514C214.811 316.567 208.466 308.163 198.862 301.304C189.259 294.444 178.111 288.099 165.421 282.269C153.073 276.438 140.04 270.607 126.32 264.776C112.944 258.946 100.425 252.258 88.7637 244.712C77.4452 236.823 68.0125 227.734 60.4668 217.444C53.6456 207.7 50.0566 195.801 49.6953 181.75C27.873 221.716 15.7825 266.573 14.8067 312.643C13.429 377.69 34.2913 441.26 73.9444 492.842C113.598 544.424 169.667 580.93 232.882 596.322C284.117 608.798 337.56 606.797 387.35 590.908V606.345C336.274 621.769 281.739 623.391 229.395 610.646C162.918 594.459 103.956 556.07 62.2569 501.827C20.5579 447.584 -1.38138 380.734 0.0674184 312.33C1.40687 249.094 22.6593 188.031 60.5918 137.744C63.1659 134.332 65.0463 131.874 66.6787 130.321C69.8298 126.83 73.419 123.63 77.4453 120.722C95.9665 107.345 120.319 100.657 150.501 100.657ZM556.743 156.962C578.295 156.962 595.767 174.433 595.768 195.985C595.768 217.538 578.295 235.01 556.743 235.01C535.191 235.01 517.72 217.537 517.72 195.985C517.72 174.433 535.191 156.962 556.743 156.962ZM449.212 44.2275C463.58 44.2275 475.228 55.875 475.228 70.2432C475.227 84.6112 463.58 96.2588 449.212 96.2588C434.844 96.2587 423.196 84.6112 423.196 70.2432C423.196 55.8751 434.844 44.2276 449.212 44.2275ZM316.979 0C326.318 0 333.889 7.57092 333.889 16.9102C333.889 26.2494 326.318 33.8203 316.979 33.8203C307.639 33.8201 300.068 26.2493 300.068 16.9102C300.068 7.57104 307.639 0.000194831 316.979 0Z" fill="#191924"/>
</svg>
